<svg xmlns="http://www.w3.org/2000/svg" xmlns:xlink="http://www.w3.org/1999/xlink" version="1.1" width="108.1186841742479" height="15.78198373479478" viewBox="0.21605795540992223 -0.035142124507985484 108.1186841742479 15.78198373479478">
  <!-- Exported by Scratch - http://scratch.mit.edu/ -->
  <g id="ID0.3017860362306237">
    <path id="ID0.14459503954276443" fill="#000000" stroke="#FFFFFF" stroke-width="1.8648259500541489" stroke-linecap="round" d="M 1.8722 6.3391 L 1.8722 1.0776 L 8.5745 1.033 L 8.5745 6.4729 L 14.5968 6.4729 L 14.5968 0.8992 L 21.2019 0.8992 L 21.2019 6.3837 L 28.0985 6.3837 L 28.0985 14.1422 L 1.8722 14.1422 L 1.8722 6.3391 Z "/>
    <path id="ID0.14459503954276443" fill="#000000" stroke="#FFFFFF" stroke-width="1.8648259500541489" stroke-linecap="round" d="M 28.0722 6.3391 L 28.0722 1.0776 L 34.7745 1.033 L 34.7745 6.4729 L 40.7968 6.4729 L 40.7968 0.8992 L 47.4019 0.8992 L 47.4019 6.3837 L 54.2985 6.3837 L 54.2985 14.1422 L 28.0722 14.1422 L 28.0722 6.3391 Z "/>
    <path id="ID0.14459503954276443" fill="#000000" stroke="#FFFFFF" stroke-width="1.8686841742479046" stroke-linecap="round" d="M 54.1022 6.3391 L 54.1022 1.0776 L 60.83 1.033 L 60.83 6.4729 L 66.8753 6.4729 L 66.8753 0.8992 L 73.5056 0.8992 L 73.5056 6.3837 L 80.4284 6.3837 L 80.4284 14.1422 L 54.1022 14.1422 L 54.1022 6.3391 Z "/>
    <path id="ID0.14459503954276443" fill="#000000" stroke="#FFFFFF" stroke-width="1.8686841742479046" stroke-linecap="round" d="M 80.2522 6.3391 L 80.2522 1.0776 L 86.98 1.033 L 86.98 6.4729 L 93.0253 6.4729 L 93.0253 0.8992 L 99.6556 0.8992 L 99.6556 6.3837 L 106.5784 6.3837 L 106.5784 14.1422 L 80.2522 14.1422 L 80.2522 6.3391 Z "/>
  </g>
  <path id="ID0.030188397038728" fill="#000000" stroke="none" d="M 1.1504 7.3125 L 107.4004 7.3125 L 107.4004 14.8125 L 1.1504 14.8125 L 1.1504 7.3125 Z " stroke-width="1.4311186466051604"/>
</svg>